# xmcd
#
# Track frame offsets:
#	150
#	16223
#	31563
#	49032
#	65047
#	85621
#	97566
#	108409
#	124238
#	138854
#	152660
#	168871
#	185384
#	200610
#	214904
#
# Disc length: 3089 seconds
#
# Revision: 0
# Processed by: cddbd v1.5.2PL0 Copyright (c) Steve Scherf et al.
# Submitted via: EasyCDDAExtractor 16.0.6.1
#
DISCID=b80c0f0f
DTITLE=Συλλογικός δίσκος - Τα καλύτερα ελληνικά τραγούδια 1961
DYEAR=1961
DGENRE=Λαϊκή
TTITLE0=Καζαντζίδης Στέλιος - Κουρασμένο παλληκάρι [Μ. Χατζιδάκι-Ν. Γκάτσου]
TTITLE1=Μπιθικώτσης Γρηγόρης - Στο περιγιάλι το κρυφό [Μ. Θεοδωράκη-Γ. Σεφέρη]
TTITLE2=Καζαντζίδης Στέλιος - Βράχο βράχο [Μ. Θεοδωράκη-Δ. Χριστοδούλου]
TTITLE3=Μπιθικώτσης Γρηγόρης - Η νήσος των Αζορών [Μ. Θεοδωράκη-Μποστ]
TTITLE4=Φυτούση Ζωή - Ο ταχυδρόμος πέθανε [Μ. Χατζιδάκι]
TTITLE5=Καζαντζίδης Στέλιος - Ο κυρ Αντώνης [Μ. Χατζιδάκι]
TTITLE6=Χορν Δημήτρης - Οι θαλασσιές οι χάντρες [Μ. Πλέσσα-Κ. Πρετεντέρη]
TTITLE7=Αναγνωστάκης Πέτρος - Ήρθα και απόψε στα σκαλοπάτια σου [Γ. Ζαμπέτα-Χ.
TTITLE7=Βασιλειάδη-Ν. Μουρκάκου]
TTITLE8=Μπιθικώτσης Γρηγόρης-Τσιτσάνης Βασίλης - Η άμαξα μέσ' τη βροχή [Α. Χατ
TTITLE8=ζηχρήστου]
TTITLE9=Ζαγοραίος Σπύρος-Περπινιάδης Βαγγέλης - Ζούσα μοναχός χωρίς αγάπη [Δ. 
TTITLE9=Γκόγκου Μπαγιαντέρα]
TTITLE10=Λύδια Γιώτα - Πες μου γιατί [Σ. Ατταλίδη-Κ. Βίρβου]
TTITLE11=Μπιθικώτσης Γρηγόρης - Το τρελοκόριτσο [Γ. Μπιθικώτση]
TTITLE12=Γκρέϋ Καίτη - Για τα μάτια π' αγαπώ [Β. Τσιτσάνη]
TTITLE13=Πάνου Πόλυ - Σβύσε το φως να κοιμηθούμε [Γ. Παπαϊωάννου-Χ. Βασιλειάδη
TTITLE13=]
TTITLE14=Γαβαλάς Πάνος - Φύγε κι άσε με [Π. Γαβαλά]
EXTD=
EXTT0=
EXTT1=
EXTT2=
EXTT3=
EXTT4=
EXTT5=
EXTT6=
EXTT7=
EXTT8=
EXTT9=
EXTT10=
EXTT11=
EXTT12=
EXTT13=
EXTT14=
PLAYORDER=
